<svg width="1920" height="576" viewBox="0 0 1920 576" fill="none" xmlns="http://www.w3.org/2000/svg">
<path opacity="0.1" fill-rule="evenodd" clip-rule="evenodd" d="M191.667 192L192 0L192.4 0.000694443L192.067 192H384.667L385 0L385.4 0.000694443L385.067 192H577.667L578 0L578.4 0.000694443L578.067 192H770.667L771 0L771.4 0.000694443L771.067 192H963.667L964 0L964.4 0.000694443L964.067 192H1156.67L1157 0L1157.4 0.000694443L1157.07 192H1349.67L1350 0L1350.4 0.000694443L1350.07 192H1542.67L1543 0L1543.4 0.000694443L1543.07 192H1735.67L1736 0L1736.4 0.000694443L1736.07 192H1920V192.4H1736.07L1735.73 384H1920V384.4H1735.73L1735.4 576.001L1735 576L1735.33 384.4H1542.73L1542.4 576.001L1542 576L1542.33 384.4H1349.73L1349.4 576.001L1349 576L1349.33 384.4H1156.73L1156.4 576.001L1156 576L1156.33 384.4H963.733L963.4 576.001L963 576L963.333 384.4H770.733L770.4 576.001L770 576L770.333 384.4H577.733L577.4 576.001L577 576L577.333 384.4H384.733L384.4 576.001L384 576L384.333 384.4H191.733L191.4 576.001L191 576L191.333 384.4H0V384H191.333L191.666 192.4H0V192H191.667ZM192.066 192.4L191.733 384H384.333L384.666 192.4H192.066ZM385.066 192.4L384.733 384H577.333L577.666 192.4H385.066ZM578.066 192.4L577.733 384H770.333L770.666 192.4H578.066ZM771.066 192.4L770.733 384H963.333L963.666 192.4H771.066ZM964.066 192.4L963.733 384H1156.33L1156.67 192.4H964.066ZM1157.07 192.4L1156.73 384H1349.33L1349.67 192.4H1157.07ZM1350.07 192.4L1349.73 384H1542.33L1542.67 192.4H1350.07ZM1543.07 192.4L1542.73 384H1735.33L1735.67 192.4H1543.07Z" fill="white"/>
</svg>
