<svg width="26" height="26" viewBox="0 0 26 26" fill="none" xmlns="http://www.w3.org/2000/svg">
<g id="Telegram_logo" clip-path="url(#clip0_211_53)">
<path id="Vector" d="M13 26C20.1797 26 26 20.1797 26 13C26 5.8203 20.1797 0 13 0C5.8203 0 0 5.8203 0 13C0 20.1797 5.8203 26 13 26Z" fill="url(#paint0_linear_211_53)"/>
<path id="Vector_2" d="M10.6167 18.9584C10.1955 18.9584 10.2671 18.7993 10.1218 18.3983L8.88336 14.3224L18.4167 8.66669" fill="#C8DAEA"/>
<path id="Vector_3" d="M10.6166 18.9583C10.9416 18.9583 11.0852 18.8097 11.2666 18.6333L13 16.9479L10.8379 15.6441" fill="#A9C9DD"/>
<path id="Vector_4" d="M10.8376 15.6444L16.0766 19.515C16.6745 19.8449 17.1059 19.6741 17.2549 18.96L19.3874 8.9107C19.6057 8.03537 19.0538 7.63822 18.4818 7.89789L5.9595 12.7264C5.10475 13.0693 5.10984 13.5462 5.80372 13.7586L9.01721 14.7617L16.4568 10.0681C16.808 9.85515 17.1304 9.96955 16.8659 10.2044" fill="url(#paint1_linear_211_53)"/>
</g>
<defs>
<linearGradient id="paint0_linear_211_53" x1="17.342" y1="4.342" x2="10.842" y2="19.5" gradientUnits="userSpaceOnUse">
<stop stop-color="#37AEE2"/>
<stop offset="1" stop-color="#1E96C8"/>
</linearGradient>
<linearGradient id="paint1_linear_211_53" x1="14.6297" y1="13.001" x2="16.6585" y2="17.6235" gradientUnits="userSpaceOnUse">
<stop stop-color="#EFF7FC"/>
<stop offset="1" stop-color="white"/>
</linearGradient>
<clipPath id="clip0_211_53">
<rect width="26" height="26" fill="white"/>
</clipPath>
</defs>
</svg>
